HIERARCHY
ROOT Hips
{
  OFFSET 28.2995 106.729 44.3157
  CHANNELS 6 Xposition Yposition Zposition Zrotation Xrotation Yrotation
  JOINT ToSpine
  {
    OFFSET -2.69724 7.43032 -0.144315
    CHANNELS 3 Zrotation Xrotation Yrotation
    JOINT Spine
    {
      OFFSET -0.0310711 10.7595 1.96963
      CHANNELS 3 Zrotation Xrotation Yrotation
      JOINT Spine1
      {
        OFFSET 19.9056 3.91189 0.764692
        CHANNELS 3 Zrotation Xrotation Yrotation
        JOINT Neck
        {
          OFFSET 25.9749 7.03908 -0.130764
          CHANNELS 3 Zrotation Xrotation Yrotation
          JOINT Head
          {
            OFFSET 9.52751 0.295786 -0.907742
            CHANNELS 3 Zrotation Xrotation Yrotation
            End Site
            {
              OFFSET 16.4037 0.713936 2.7358
            }
          }
        }
        JOINT LeftShoulder
        {
          OFFSET 17.7449 4.33886 11.7777
          CHANNELS 3 Zrotation Xrotation Yrotation
          JOINT LeftArm
          {
            OFFSET 0.911315 1.27913 9.80584
            CHANNELS 3 Zrotation Xrotation Yrotation
            JOINT LeftForeArm
            {
              OFFSET 28.6126 1.18197 -3.53199
              CHANNELS 3 Zrotation Xrotation Yrotation
              JOINT LeftHand
              {
                OFFSET 27.5088 0.0218783 0.327423
                CHANNELS 3 Zrotation Xrotation Yrotation
                End Site
                {
                  OFFSET 18.6038 -0.000155887 0.382096
                }
              }
            }
          }
        }
        JOINT RightShoulder
        {
          OFFSET 17.1009 2.89543 -12.2328
          CHANNELS 3 Zrotation Xrotation Yrotation
          JOINT RightArm
          {
            OFFSET 1.4228 0.178766 -10.211
            CHANNELS 3 Zrotation Xrotation Yrotation
            JOINT RightForeArm
            {
              OFFSET 28.733 1.87905 2.64907
              CHANNELS 3 Zrotation Xrotation Yrotation
              JOINT RightHand
              {
                OFFSET 27.4588 0.290562 -0.101845
                CHANNELS 3 Zrotation Xrotation Yrotation
                End Site
                {
                  OFFSET 17.8396 -0.255518 -0.000602873
                }
              }
            }
          }
        }
      }
    }
  }
  JOINT LeftUpLeg
  {
    OFFSET -5.61296 -2.22332 -10.2353
    CHANNELS 3 Zrotation Xrotation Yrotation
    JOINT LeftLeg
    {
      OFFSET 2.56703 -44.7417 -7.93097
      CHANNELS 3 Zrotation Xrotation Yrotation
      JOINT LeftFoot
      {
        OFFSET 3.16933 -46.5642 -3.96578
        CHANNELS 3 Zrotation Xrotation Yrotation
        JOINT LeftToeBase
        {
          OFFSET 0.346054 -6.02161 12.8035
          CHANNELS 3 Zrotation Xrotation Yrotation
          End Site
          {
            OFFSET 0.134235 -1.35082 5.13018
          }
        }
      }
    }
  }
  JOINT RightUpLeg
  {
    OFFSET -5.7928 -1.72406 10.6446
    CHANNELS 3 Zrotation Xrotation Yrotation
    JOINT RightLeg
    {
      OFFSET -2.57161 -44.7178 -7.85259
      CHANNELS 3 Zrotation Xrotation Yrotation
      JOINT RightFoot
      {
        OFFSET -3.10148 -46.5936 -4.03391
        CHANNELS 3 Zrotation Xrotation Yrotation
        JOINT RightToeBase
        {
          OFFSET -0.0828122 -6.13587 12.8035
          CHANNELS 3 Zrotation Xrotation Yrotation
          End Site
          {
            OFFSET -0.131328 -1.35082 5.13018
          }
        }
      }
    }
  }
}
MOTION
Frames:	20
Frame Time:	0.0333333
-317.673 101.878 297.718 50.0066 49.167 33.2455 -70.1915 0 88.8779 54.1864 56.9266 38.4617 9.10697 12.9522 -0.298175 -135.62 27.7822 165.609 -151.063 67.4651 171.104 2.28838 -5.1725 -39.0194 -101.308 46.3094 -94.0335 -24.7921 66.8302 18.7931 25.2391 -3.60194 -14.0973 0.721338 -1.93828 55.1323 -84.5954 -26.6781 88.7025 -4.55548 -11.4407 11.4093 8.8446 -0.0659394 -1.28472 -49.2328 -12.0029 83.4012 8.43209 16.6249 -12.258 6.8174 8.36373 -0.826346 -8.51386 -21.9666 4.42644 -51.858 -0.364125 76.7952 4.76855 18.8939 -5.27229 -4.23301 5.60465 0.491936 -4.52296 -21.1979 -9.61979 
-317.536 101.867 297.725 49.706 49.1399 33.5738 -70.1915 0 88.8779 53.8067 56.7039 38.8503 9.36891 12.8711 -0.227402 -135.512 27.8157 165.36 -150.209 67.4323 170.426 2.27663 -5.24635 -39.1937 -101.031 46.0348 -94.1015 -24.3286 66.0103 18.1807 24.8269 -3.56413 -14.1955 0.731442 -1.96207 55.168 -84.9206 -26.5235 88.7429 -4.75001 -11.752 11.0375 9.16957 -0.0882659 -1.54831 -49.1281 -11.8786 83.4762 8.45057 16.5372 -12.5194 7.08809 8.47301 -0.877095 -8.70219 -22.4841 4.49101 -51.7587 -0.155568 76.9013 4.72907 18.789 -5.49274 -4.12505 5.42372 0.479898 -4.54267 -21.2204 -9.84439 
-317.39 101.856 297.758 49.3997 49.0974 33.8996 -70.1915 0 88.8779 54.1309 56.6709 38.6482 8.98903 12.7202 -0.010489 -135.508 27.9287 166.097 -150.989 67.5453 171.371 2.27402 -5.34419 -39.7266 -100.555 45.3475 -93.9039 -23.8566 64.8861 17.4067 24.236 -3.48458 -14.227 0.703278 -1.89491 55.0943 -85.1615 -26.5639 88.376 -4.59863 -11.9154 11.1654 9.09296 -0.0800947 -1.44872 -48.9699 -11.7362 83.5448 8.44641 16.5086 -12.7621 7.35 8.55169 -0.926894 -8.89448 -23.013 4.56443 -51.5832 0.0766324 77.0424 4.65486 18.7659 -5.80941 -3.99344 5.25753 0.46372 -4.65338 -21.5538 -10.0532 
-317.258 101.841 297.767 49.2322 49.0623 34.0454 -70.1915 0 88.8779 54.9479 56.7906 38.1295 8.55033 12.6413 -0.170697 -136.069 27.9671 166.347 -150.371 67.3778 170.328 2.31375 -5.2167 -39.8395 -100.746 45.0716 -93.6614 -23.6293 64.6171 17.2376 23.9038 -3.45078 -14.295 0.70069 -1.88338 55.2713 -84.7704 -26.4637 88.3912 -4.57973 -11.6282 11.2885 9.18119 -0.0782594 -1.41292 -48.9373 -11.6699 83.5979 8.469 16.4269 -12.8954 7.57334 8.58277 -0.969865 -9.02966 -23.3824 4.61007 -51.5181 0.165412 77.0644 4.68323 18.7795 -5.75742 -4.01256 5.07951 0.473286 -4.82885 -22.0053 -10.6802 
-317.102 101.807 297.806 49.0985 49.0472 34.1447 -70.1915 0 88.8779 55.2635 56.8997 37.9281 8.70723 12.5968 -0.0310767 -137.627 28.0743 167.239 -150.828 67.2731 170.159 2.32238 -5.22465 -40.0779 -100.997 44.9773 -93.826 -23.5087 64.6131 17.24 23.7061 -3.40296 -14.2086 0.740811 -1.99638 54.8139 -84.7228 -26.8232 88.7253 -4.49816 -11.5 11.4377 9.22987 -0.0830319 -1.47038 -48.9663 -11.6027 83.6517 8.46129 16.265 -13.0151 8.12183 8.82151 -1.07562 -9.36913 -24.2922 4.67653 -51.3473 0.246735 77.092 4.6862 19.043 -5.71813 -3.98662 4.76683 0.480263 -4.99503 -22.4074 -11.3042 
-316.911 101.784 297.865 49.0664 49.1029 34.1961 -70.1915 0 88.8779 55.8619 57.2877 37.2363 8.51623 12.6272 0.303935 -138.375 28.0437 167.327 -149.792 67.0208 169.206 2.27553 -5.43608 -40.3381 -100.933 44.6929 -94.2591 -23.4267 64.4644 17.1488 23.3843 -3.30811 -13.9847 0.801089 -2.15333 54.6116 -85.2279 -26.8283 88.839 -4.7262 -11.9625 10.996 9.30738 -0.0377375 -0.863752 -49.0137 -11.51 83.6578 8.46923 16.2769 -13.1312 8.44111 8.89308 -1.13813 -9.59438 -24.9152 4.76889 -51.4021 0.41592 77.1499 4.65486 19.0466 -5.79801 -4.0443 4.65143 0.493754 -5.50604 -23.8512 -12.0248 
-316.675 101.772 297.912 49.0787 49.1599 34.1564 -70.1915 0 88.8779 56.4952 57.3668 36.7093 8.76757 12.5113 0.138853 -139.54 27.7716 167.738 -149.179 66.5004 168.65 2.3037 -5.29822 -40.1125 -101.406 44.8751 -94.3306 -23.1126 64.4306 17.135 22.8433 -3.16453 -13.6694 0.789351 -2.12255 54.6537 -85.1269 -26.774 89.3112 -4.84767 -11.9997 10.8536 9.28565 -0.0130461 -0.538917 -49.1016 -11.433 83.6801 8.48267 16.2957 -13.2147 8.51606 8.83322 -1.15274 -9.68963 -25.1724 4.79223 -51.5647 0.532243 77.1667 4.65835 18.9225 -5.84878 -4.1643 4.54196 0.516946 -5.81197 -24.6965 -12.3928 
-316.428 101.754 297.973 49.2114 49.1922 34.0018 -70.1915 0 88.8779 57.5819 57.7708 35.7242 8.56461 12.4878 0.271924 -140.615 27.4588 168.321 -149.024 66.0009 168.57 2.31571 -5.28262 -40.2849 -101.249 44.7035 -94.6322 -22.9516 64.1893 16.9895 22.362 -2.9531 -12.9647 0.811151 -2.18408 54.4588 -84.4372 -26.8808 89.7023 -4.74193 -11.5047 11.1689 9.33843 -0.0259472 -0.707183 -49.2466 -11.3617 83.6548 8.51586 16.3161 -13.1876 8.64162 8.87749 -1.17742 -9.88119 -25.6643 4.77987 -51.6939 0.654572 77.1867 4.6556 18.9723 -5.80608 -4.28851 4.37523 0.542502 -5.98158 -25.0308 -13.0082 
-316.115 101.744 298.029 49.3586 49.3161 33.8966 -70.1915 0 88.8779 58.4345 58.0277 34.8864 8.67931 12.4205 0.275742 -141.499 26.9915 168.272 -147.935 65.2588 167.533 2.30492 -5.2953 -40.1218 -101.281 44.7955 -95.1321 -22.5985 63.7383 16.7235 21.7861 -2.71605 -12.1583 0.82133 -2.20849 54.4878 -83.2846 -26.9081 90.2739 -4.58123 -10.6816 11.6912 9.33878 -0.0121095 -0.52553 -49.3994 -11.2792 83.5048 8.58893 16.5212 -13.1408 8.51266 8.69558 -1.15185 -9.92827 -25.8005 4.81277 -52.0855 0.873848 77.2262 4.64274 18.6492 -5.97975 -4.49866 4.35978 0.576483 -6.06281 -25.1494 -13.4253 
-315.754 101.735 298.032 49.5129 49.2995 33.6503 -70.1915 0 88.8779 59.4262 57.8552 34.3665 8.6363 12.1099 -0.0704908 -141.728 26.3442 170.474 -150.827 64.8439 171.223 2.40304 -5.0307 -40.658 -101.314 44.1129 -95.045 -21.9146 62.5206 16.0442 20.8067 -2.41406 -11.2143 0.665048 -1.81138 54.6994 -81.1502 -26.5153 90.8768 -4.64987 -9.319 12.1344 9.47895 -0.00319281 -0.40772 -49.5747 -11.2552 83.378 8.67905 16.6164 -12.9542 8.28412 8.52227 -1.10745 -9.9532 -25.8694 4.82267 -52.4137 0.977823 77.2222 4.67014 18.3956 -5.93033 -4.76059 4.34902 0.618505 -6.08749 -25.2232 -13.4234 
-315.337 101.729 298.029 49.823 49.3263 33.2992 -70.1915 0 88.8779 59.5497 58.2647 34.1543 9.11088 12.3772 -0.0606348 -142.427 25.7036 169.542 -148.595 63.8666 169.18 2.30386 -5.29005 -40.0657 -101.607 44.8078 -95.4793 -21.4769 62.2152 15.8937 20.0983 -2.1112 -10.0076 0.771287 -2.08756 54.3618 -80.8796 -26.9223 91.3158 -4.50385 -9.12518 12.3959 9.83431 -0.0204248 -0.619858 -49.869 -11.1559 83.3669 8.76027 16.7108 -12.8865 8.0858 8.44591 -1.06933 -10.0852 -26.1945 4.78478 -52.8849 1.13705 77.2201 4.68554 18.1217 -5.88207 -5.04515 4.27345 0.66582 -6.09737 -25.2049 -13.5825 
-314.862 101.704 297.987 50.1472 49.3614 32.9498 -70.1915 0 88.8779 59.8171 58.6211 33.8629 9.22202 12.5558 0.114405 -142.341 25.045 169.496 -147.644 63.0281 168.855 2.20828 -5.63683 -40.0595 -101.721 44.8975 -95.6763 -20.8812 61.2643 15.4217 19.0535 -1.76214 -8.62382 0.823368 -2.23292 53.9813 -80.1258 -27.3818 91.3034 -3.98572 -8.90837 13.1016 9.79799 0.0512711 0.27291 -50.1171 -11.0566 83.1931 8.78348 17.0304 -12.6395 8.00394 8.33384 -1.05388 -10.2953 -26.7355 4.78208 -53.4096 1.27734 77.1716 4.76004 17.8674 -5.84029 -5.39954 4.18029 0.724204 -6.1041 -25.2163 -13.6105 
-314.311 101.628 297.919 50.6174 49.3049 32.4912 -70.1915 0 88.8779 60.8451 58.468 33.4154 9.23157 12.3014 -0.301001 -142.102 24.1002 171.609 -149.748 62.245 171.973 2.31637 -5.3157 -40.5054 -101.323 44.139 -95.5176 -20.0879 59.0687 14.4368 17.3066 -1.35699 -7.06918 0.663934 -1.82026 54.2777 -79.6028 -26.9384 91.2092 -4.07648 -9.04099 12.9954 10.6308 0.0367454 0.0540229 -50.2575 -11.1412 81.8358 8.70989 18.0146 -11.0781 8.02398 8.13949 -1.05821 -10.6974 -27.7669 4.77841 -53.818 1.49512 77.1321 4.78875 17.9919 -5.69291 -5.73753 3.91996 0.782978 -6.12534 -25.205 -13.8586 
-313.723 101.52 297.804 51.4057 49.3275 31.8218 -70.1915 0 88.8779 61.4839 59.071 32.8627 9.50144 12.6502 -0.255458 -142.56 23.3261 170.997 -147.747 61.1005 170.179 2.2418 -5.49353 -39.9223 -101.319 44.737 -95.718 -19.3945 57.6594 13.8889 15.3889 -0.995947 -5.55184 0.762164 -2.08285 53.8331 -79.566 -27.5135 91.1907 -3.88105 -8.76888 13.2812 11.6362 -0.107337 -1.4789 -50.6035 -11.3642 79.5858 8.45995 19.3723 -8.5501 8.13043 8.04747 -1.07856 -11.3021 -29.3041 4.76761 -54.4734 1.67377 76.964 4.90314 18.1956 -5.47566 -6.14757 3.58161 0.852653 -6.08924 -25.0979 -13.8631 
-313.038 101.36 297.794 53.0055 49.0928 30.435 -70.1915 0 88.8779 63.928 59.6793 30.9404 9.19629 12.7032 -0.515767 -142.872 22.2295 172.992 -149.48 60.0757 172.514 2.3951 -4.94957 -40.0182 -101.097 44.4458 -95.5289 -18.6355 55.4692 13.1273 13.4904 -0.615889 -3.43452 0.614974 -1.70256 54.0547 -78.8561 -27.1923 91.2761 -4.09156 -8.6171 13.1162 11.6786 -0.205182 -2.48565 -51.0235 -11.6621 75.5518 7.497 21.6963 -3.4752 8.3993 7.99725 -1.12935 -12.2446 -31.4661 4.39115 -55.206 2.063 76.8796 4.88724 18.8524 -4.90719 -6.60682 3.08165 0.929532 -6.01651 -24.8734 -13.9025 
-312.385 101.085 297.846 54.618 48.7737 29.2843 -70.1915 0 88.8779 66.4227 61.035 28.7909 8.82866 13.3752 -0.194093 -143.51 21.4089 172.542 -147.688 58.874 170.859 2.35536 -5.03835 -39.6903 -101.137 44.5764 -95.4721 -18.0327 53.8614 12.6357 9.69915 -0.398656 -2.92685 0.6919 -1.90144 53.9169 -78.506 -27.4159 91.1562 -3.85847 -8.31866 13.4761 10.934 -0.216258 -2.76279 -51.3121 -12.2762 68.0391 5.0404 25.0872 5.29359 8.92158 7.72244 -1.22643 -13.1844 -33.8065 4.43022 -55.6134 2.73066 76.8608 4.78064 20.046 -4.50825 -7.02121 2.39471 0.997935 -5.98975 -24.7363 -14.1102 
-311.751 100.653 297.875 55.9003 48.1943 28.8113 -70.1915 0 88.8779 69.9662 61.8295 27.0301 8.26044 13.7784 -0.828644 -143.763 20.5478 173.949 -148.776 58.1215 172.926 2.43952 -4.68602 -39.4652 -100.525 44.5146 -95.5746 -17.9276 52.955 12.3734 8.93522 -0.246748 -1.43929 0.565558 -1.57306 54.2571 -78.2892 -27.091 90.8279 -3.99151 -8.29305 13.3432 10.9861 -0.249332 -3.11529 -50.3643 -12.8391 59.9449 0.810641 30.1418 15.5102 8.72013 7.65801 -1.1887 -14.4095 -36.6893 4.30128 -55.5404 3.8285 76.9189 4.69999 21.5653 -4.44678 -7.43798 1.53566 1.06294 -5.86767 -24.4073 -14.01 
-311.056 100.203 297.87 57.2869 47.7926 28.1531 -70.1915 0 88.8779 73.0293 63.544 24.81 7.81386 14.9294 -0.416485 -145.007 20.076 173.451 -147.312 57.3031 171.189 2.30466 -5.14342 -39.2065 -100.097 45.0179 -96.1547 -17.8115 52.6099 12.2757 7.53186 -0.120902 -0.175265 0.722298 -1.98456 53.7342 -78.893 -27.6318 90.3305 -3.84665 -8.41375 13.4448 11.1749 -0.254741 -3.1243 -47.0572 -12.5177 63.7354 0.299782 37.1483 13.3722 7.88207 7.92925 -1.03207 -15.2851 -38.9577 4.55549 -55.6322 4.76476 76.8897 4.58383 23.2107 -4.35039 -7.82845 0.5404 1.11891 -5.71333 -24.0074 -13.8072 
-310.321 99.7145 297.834 58.402 47.1918 28.0472 -70.1915 0 88.8779 77.0416 64.9375 22.4177 7.10609 15.8704 -0.376697 -145.468 20.9891 172.731 -147.214 58.2052 169.919 2.29714 -5.19057 -39.3177 -99.0733 44.9745 -96.9786 -17.9644 52.1837 12.1534 8.45324 -0.0753743 0.6172 0.715473 -1.97107 53.6116 -80.8817 -27.6444 89.1623 -3.91547 -10.4151 12.7045 11.6225 -0.249154 -2.95317 -42.9895 -12.1894 66.5153 -0.153829 45.0951 12.5668 5.58653 7.32733 -0.614443 -14.4391 -38.2001 6.30757 -55.6323 6.27625 77.1119 4.32622 24.5102 -4.53735 -8.12086 -0.284103 1.15651 -5.64449 -23.8344 -13.6883 
-309.49 99.5742 297.813 59.5351 46.5687 27.383 -70.1915 0 88.8779 80.6238 66.4574 19.6146 6.14887 16.9762 -0.175102 -145.423 20.9672 173.458 -148.442 58.5301 172.409 2.26302 -5.35034 -39.5146 -98.7934 44.9351 -96.8119 -18.0526 52.2914 12.1844 8.40346 -0.0352569 1.13622 0.682371 -1.87888 53.8612 -81.4883 -26.7935 88.3628 -4.57243 -10.7509 11.825 11.8572 -0.209677 -2.49735 -39.3168 -11.5632 69.6943 -0.689649 51.2198 11.9929 5.96914 7.79529 -0.675078 -14.1948 -37.997 6.85758 -56.4046 7.553 77.6534 3.8698 24.3453 -4.45914 -8.38161 -0.349316 1.18753 -5.53171 -23.5873 -13.3367 
